<?xml version="1.0" standalone="no"?>
<!DOCTYPE svg PUBLIC "-//W3C//DTD SVG 20010904//EN"
 "http://www.w3.org/TR/2001/REC-SVG-20010904/DTD/svg10.dtd">
<svg version="1.0" xmlns="http://www.w3.org/2000/svg"
 width="1012.000000pt" height="267.000000pt" viewBox="0 0 1012.000000 267.000000"
 preserveAspectRatio="xMidYMid meet">
<metadata>
Created by potrace 1.16, written by Peter Selinger 2001-2019
</metadata>
<g transform="translate(0.000000,267.000000) scale(0.100000,-0.100000)"
fill="#000000" stroke="none">
<path d="M1069 2580 c-88 -22 -166 -55 -253 -107 -73 -43 -593 -554 -662 -649
-109 -151 -154 -299 -154 -504 0 -158 19 -249 75 -369 58 -122 110 -183 402
-472 290 -287 338 -326 478 -383 113 -45 202 -59 353 -53 82 3 161 11 197 21
90 25 222 91 300 151 96 73 562 546 609 618 49 75 99 185 122 267 26 92 26
348 0 440 -22 82 -73 192 -122 267 -45 69 -487 520 -593 605 -83 66 -192 125
-296 158 -101 33 -346 38 -456 10z m326 -405 c68 -18 144 -58 177 -92 l22 -24
-94 -94 c-66 -66 -100 -93 -110 -89 -69 30 -98 35 -141 24 -38 -10 -75 -42
-267 -234 -123 -121 -233 -236 -244 -254 -27 -44 -27 -120 0 -164 37 -59 106
-86 175 -67 36 9 80 48 297 263 280 277 304 295 437 318 131 22 260 -19 362
-117 168 -160 187 -396 46 -582 -24 -32 -146 -160 -272 -284 -251 -248 -295
-279 -427 -302 -113 -19 -279 27 -344 95 l-22 24 99 98 c96 96 99 98 122 83
43 -28 93 -31 140 -9 64 29 492 462 509 515 22 68 -11 151 -71 183 -38 19
-116 21 -150 4 -13 -7 -136 -124 -274 -260 -273 -269 -302 -291 -429 -313
-282 -48 -545 216 -498 499 21 128 41 155 323 439 155 156 280 273 311 292 98
60 212 76 323 48z"/>
<path d="M8985 2481 c-11 -5 -29 -19 -40 -31 -20 -22 -20 -38 -23 -834 -2
-446 0 -826 3 -845 10 -51 45 -81 99 -81 37 0 48 5 70 31 l26 31 0 834 c0 554
-3 842 -10 855 -12 22 -61 49 -87 48 -10 0 -27 -4 -38 -8z"/>
<path d="M4623 2456 l-28 -24 -3 -679 c-3 -701 0 -764 38 -850 23 -52 91 -127
145 -158 83 -49 256 -69 377 -44 135 28 248 113 248 188 0 58 -30 91 -85 91
-35 0 -51 -7 -90 -39 -58 -48 -101 -61 -204 -61 -122 0 -184 32 -222 115 -17
36 -19 71 -19 383 l0 342 226 0 226 0 29 29 c31 32 38 71 18 114 -22 48 -39
52 -276 55 l-223 3 0 250 0 251 -29 29 c-38 37 -88 39 -128 5z"/>
<path d="M8528 2465 c-35 -20 -58 -64 -58 -110 0 -97 104 -156 187 -105 105
64 69 217 -54 227 -31 2 -58 -2 -75 -12z"/>
<path d="M8539 2036 c-14 -9 -31 -28 -38 -43 -8 -21 -11 -193 -9 -641 l3 -614
28 -24 c41 -35 99 -33 138 5 l29 30 -2 625 c-3 621 -3 626 -24 646 -27 27 -91
35 -125 16z"/>
<path d="M7003 2033 c-12 -2 -34 -18 -48 -34 l-25 -31 0 -839 0 -839 29 -32
c24 -27 36 -33 71 -33 35 0 47 6 71 33 l29 32 0 290 0 291 63 -48 c215 -165
508 -187 747 -56 39 22 97 68 146 117 94 95 152 199 179 322 24 104 17 273
-14 364 -68 199 -232 363 -431 431 -99 34 -280 38 -385 10 -96 -27 -199 -79
-260 -133 l-45 -40 0 66 c0 58 -3 69 -27 95 -29 30 -61 41 -100 34z m737 -220
c146 -39 275 -166 321 -315 23 -71 26 -193 9 -260 -45 -168 -197 -311 -368
-347 -246 -51 -492 105 -557 354 -55 214 54 444 257 540 113 54 213 62 338 28z"/>
<path d="M3683 2010 c-93 -24 -145 -52 -205 -108 -70 -66 -100 -129 -106 -223
-6 -102 14 -162 79 -233 87 -95 219 -149 507 -206 85 -16 163 -35 175 -41 143
-74 92 -243 -91 -299 -77 -24 -147 -25 -250 -4 -163 33 -262 104 -262 188 0
39 -39 76 -86 83 -36 5 -46 1 -75 -25 -32 -29 -34 -34 -32 -90 4 -158 135
-280 368 -343 62 -17 109 -22 210 -22 116 -1 138 2 203 25 172 62 268 163 291
307 18 114 -21 235 -98 303 -57 50 -128 76 -307 113 -330 68 -434 120 -434
219 0 112 119 180 310 178 108 -2 180 -18 246 -57 47 -28 68 -62 79 -127 7
-44 54 -88 93 -88 38 0 90 35 98 66 11 43 -3 128 -29 181 -50 98 -169 178
-313 208 -99 21 -281 19 -371 -5z"/>
<path d="M5912 2010 c-337 -89 -557 -439 -488 -779 44 -217 175 -386 371 -481
221 -107 478 -88 693 52 69 45 152 131 178 186 34 73 -10 142 -90 142 -40 0
-46 -4 -115 -80 -58 -64 -86 -86 -144 -114 -160 -76 -309 -74 -459 6 -108 57
-210 193 -237 316 l-9 42 535 0 535 0 39 39 c36 36 39 43 39 94 0 185 -158
421 -350 521 -143 75 -339 97 -498 56z m303 -192 c117 -29 250 -138 303 -249
l31 -64 -230 -3 c-126 -1 -332 -1 -458 0 l-230 3 31 64 c41 86 126 169 219
215 107 53 215 64 334 34z"/>
<path d="M9460 1729 c-164 -161 -304 -304 -310 -320 -24 -57 -12 -73 288 -370
259 -257 293 -288 352 -314 52 -23 84 -30 155 -33 86 -4 92 -3 122 22 40 34
50 74 28 119 -20 44 -51 57 -128 57 -93 0 -132 28 -372 270 l-210 211 258 253
257 252 0 47 c0 66 -31 97 -95 97 l-46 0 -299 -291z"/>
</g>
</svg>
